<svg id="visual" viewBox="0 0 1820 50" width="1820" height="50" xmlns="http://www.w3.org/2000/svg" xmlns:xlink="http://www.w3.org/1999/xlink" version="1.1"><rect x="0" y="0" width="1820" height="50" fill="#fff"></rect><path d="M0 46L43.3 42.3C86.7 38.7 173.3 31.3 260 28.5C346.7 25.7 433.3 27.3 520 30.7C606.7 34 693.3 39 780 38.5C866.7 38 953.3 32 1040 28.5C1126.7 25 1213.3 24 1300 25.3C1386.7 26.7 1473.3 30.3 1560 33.5C1646.7 36.7 1733.3 39.3 1776.7 40.7L1820 42L1820 0L1776.7 0C1733.3 0 1646.7 0 1560 0C1473.3 0 1386.7 0 1300 0C1213.3 0 1126.7 0 1040 0C953.3 0 866.7 0 780 0C693.3 0 606.7 0 520 0C433.3 0 346.7 0 260 0C173.3 0 86.7 0 43.3 0L0 0Z" fill="#808080"></path><path d="M0 11L43.3 12.3C86.7 13.7 173.3 16.3 260 20.5C346.7 24.7 433.3 30.3 520 29.8C606.7 29.3 693.3 22.7 780 21C866.7 19.3 953.3 22.7 1040 25.5C1126.7 28.3 1213.3 30.7 1300 29.5C1386.7 28.3 1473.3 23.7 1560 24.2C1646.7 24.7 1733.3 30.3 1776.7 33.2L1820 36L1820 0L1776.7 0C1733.3 0 1646.7 0 1560 0C1473.3 0 1386.7 0 1300 0C1213.3 0 1126.7 0 1040 0C953.3 0 866.7 0 780 0C693.3 0 606.7 0 520 0C433.3 0 346.7 0 260 0C173.3 0 86.7 0 43.3 0L0 0Z" fill="#3f3f3f"></path><path d="M0 14L43.3 13.8C86.7 13.7 173.3 13.3 260 11.2C346.7 9 433.3 5 520 2.8C606.7 0.7 693.3 0.3 780 3.5C866.7 6.7 953.3 13.3 1040 13.5C1126.7 13.7 1213.3 7.3 1300 4C1386.7 0.7 1473.3 0.3 1560 1.5C1646.7 2.7 1733.3 5.3 1776.7 6.7L1820 8L1820 0L1776.7 0C1733.3 0 1646.7 0 1560 0C1473.3 0 1386.7 0 1300 0C1213.3 0 1126.7 0 1040 0C953.3 0 866.7 0 780 0C693.3 0 606.7 0 520 0C433.3 0 346.7 0 260 0C173.3 0 86.7 0 43.3 0L0 0Z" fill="#000000"></path></svg>