<svg id="visual" viewBox="0 0 1820 50" width="1820" height="50" xmlns="http://www.w3.org/2000/svg" xmlns:xlink="http://www.w3.org/1999/xlink" version="1.1"><rect x="0" y="0" width="1820" height="50" fill="#fff"></rect><path d="M0 2L43.3 5.7C86.7 9.3 173.3 16.7 260 19.5C346.7 22.3 433.3 20.7 520 17.3C606.7 14 693.3 9 780 9.5C866.7 10 953.3 16 1040 19.5C1126.7 23 1213.3 24 1300 22.7C1386.7 21.3 1473.3 17.7 1560 14.5C1646.7 11.3 1733.3 8.7 1776.7 7.3L1820 6L1820 51L1776.7 51C1733.3 51 1646.7 51 1560 51C1473.3 51 1386.7 51 1300 51C1213.3 51 1126.7 51 1040 51C953.3 51 866.7 51 780 51C693.3 51 606.7 51 520 51C433.3 51 346.7 51 260 51C173.3 51 86.7 51 43.3 51L0 51Z" fill="#808080"></path><path d="M0 37L43.3 35.7C86.7 34.3 173.3 31.7 260 27.5C346.7 23.3 433.3 17.7 520 18.2C606.7 18.7 693.3 25.3 780 27C866.7 28.7 953.3 25.3 1040 22.5C1126.7 19.7 1213.3 17.3 1300 18.5C1386.7 19.7 1473.3 24.3 1560 23.8C1646.7 23.3 1733.3 17.7 1776.7 14.8L1820 12L1820 51L1776.7 51C1733.3 51 1646.7 51 1560 51C1473.3 51 1386.7 51 1300 51C1213.3 51 1126.7 51 1040 51C953.3 51 866.7 51 780 51C693.3 51 606.7 51 520 51C433.3 51 346.7 51 260 51C173.3 51 86.7 51 43.3 51L0 51Z" fill="#3f3f3f"></path><path d="M0 34L43.3 34.2C86.7 34.3 173.3 34.7 260 36.8C346.7 39 433.3 43 520 45.3C606.7 47.7 693.3 48.3 780 45.2C866.7 42 953.3 35 1040 34.7C1126.7 34.3 1213.3 40.7 1300 44.2C1386.7 47.7 1473.3 48.3 1560 47.2C1646.7 46 1733.3 43 1776.7 41.5L1820 40L1820 51L1776.7 51C1733.3 51 1646.7 51 1560 51C1473.3 51 1386.7 51 1300 51C1213.3 51 1126.7 51 1040 51C953.3 51 866.7 51 780 51C693.3 51 606.7 51 520 51C433.3 51 346.7 51 260 51C173.3 51 86.7 51 43.3 51L0 51Z" fill="#000000"></path></svg>