<?xml version="1.0" encoding="UTF-8"?>
<!-- Created with Inkscape (http://www.inkscape.org/) -->
<svg width="125mm" height="115mm" version="1.1" viewBox="0 0 125 115" xmlns="http://www.w3.org/2000/svg">
 <g transform="matrix(.99676 0 0 1.0007 -38.874 -63.843)" fill="#b87333" stroke="#fff">
  <path class="UnoptimicedTransforms" transform="translate(-33.287 -5.4218)" d="m161.27 124.74c-4.1937 3.3913-7.6368 7.5259-10.103 12.058-3.2872 6.0366-4.6521 12.403-4.2218 18.265-5.2098 9.0712-8.9848 18.842-11.171 28.853 2.6478-9.0687 6.5996-17.752 11.666-25.726 3.2738-5.1524 7.0131-10.009 11.167-14.482 4.9512-5.3315 10.501-10.116 16.511-14.217-5.7261 4.5178-10.898 9.6542-15.404 15.245-3.149 3.9078-5.9787 8.0387-8.4701 12.336 5.1068-1.6543 10.108-3.9168 14.706-6.5454 3.6813-2.0998 7.1531-4.4626 10.413-7.0898 8.1732-6.6136 15.601-15.503 20.638-25.116-10.363-4.5946-24.497-2.6446-35.732 6.4193z"/>
  <path class="UnoptimicedTransforms" transform="matrix(-1 0 0 1 236.69 -5.4218)" d="m161.27 124.74c-4.1937 3.3913-7.6368 7.5259-10.103 12.058-3.2872 6.0366-4.6521 12.403-4.2218 18.265-5.2098 9.0712-8.9848 18.842-11.171 28.853 2.6478-9.0687 6.5996-17.752 11.666-25.726 3.2738-5.1524 7.0131-10.009 11.167-14.482 4.9512-5.3315 10.501-10.116 16.511-14.217-5.7261 4.5178-10.898 9.6542-15.404 15.245-3.149 3.9078-5.9787 8.0387-8.4701 12.336 5.1068-1.6543 10.108-3.9168 14.706-6.5454 3.6813-2.0998 7.1531-4.4626 10.413-7.0898 8.1732-6.6136 15.601-15.503 20.638-25.116-10.363-4.5946-24.497-2.6446-35.732 6.4193z"/>
  <path class="UnoptimicedTransforms" transform="translate(-13.097 -54.697)" d="m103.15 158.99c-0.0656 13.768 3.4344 26.996 9.7445 36.829l1.9064 37.579 0.19953-34.719 0.2826-49.172 2.3052 45.437c6.0677-9.6762 9.4936-22.483 9.5811-35.816 0.0785-15.275-4.2296-29.81-11.798-39.805-7.6704 9.9174-12.133 24.401-12.221 39.667z"/>
 </g>
</svg>
