<?xml version="1.0" encoding="UTF-8" standalone="no"?>
<!-- Created with Inkscape (http://www.inkscape.org/) -->

<svg
   width="238mm"
   height="115mm"
   viewBox="0 0 238 115"
   version="1.1"
   id="svg5"
   inkscape:version="1.2.2 (732a01da63, 2022-12-09)"
   sodipodi:docname="leaf bottom.svg"
   xmlns:inkscape="http://www.inkscape.org/namespaces/inkscape"
   xmlns:sodipodi="http://sodipodi.sourceforge.net/DTD/sodipodi-0.dtd"
   xmlns="http://www.w3.org/2000/svg"
   xmlns:svg="http://www.w3.org/2000/svg">
  <sodipodi:namedview
     id="namedview7"
     pagecolor="#505050"
     bordercolor="#ffffff"
     borderopacity="1"
     inkscape:showpageshadow="0"
     inkscape:pageopacity="0"
     inkscape:pagecheckerboard="1"
     inkscape:deskcolor="#505050"
     inkscape:document-units="mm"
     showgrid="false"
     inkscape:zoom="0.40357381"
     inkscape:cx="397.69677"
     inkscape:cy="577.34173"
     inkscape:window-width="1350"
     inkscape:window-height="689"
     inkscape:window-x="0"
     inkscape:window-y="0"
     inkscape:window-maximized="0"
     inkscape:current-layer="layer1" />
  <defs
     id="defs2">
    <inkscape:path-effect
       effect="skeletal"
       id="path-effect11670"
       is_visible="true"
       lpeversion="1"
       pattern="M 52.36033,6.0820985 A 34.509827,34.509827 0 0 0 28.162324,16.038078 l -24.720972,2.12235 h 22.847184 32.358232 l -29.890682,2.56626 A 34.50983,34.509827 0 0 0 52.36033,30.101818 34.50983,34.509827 0 0 0 78.509121,18.075168 34.509827,34.509827 0 0 0 52.36033,6.0820985 Z"
       copytype="single_stretched"
       prop_scale="1"
       scale_y_rel="false"
       spacing="0"
       normal_offset="0"
       tang_offset="0"
       prop_units="false"
       vertical_pattern="false"
       hide_knot="false"
       fuse_tolerance="0" />
    <inkscape:path-effect
       effect="skeletal"
       id="path-effect11666"
       is_visible="true"
       lpeversion="1"
       pattern="M 52.36033,6.0820985 A 34.509827,34.509827 0 0 0 28.162324,16.038078 l -24.720972,2.12235 h 22.847184 32.358232 l -29.890682,2.56626 A 34.50983,34.509827 0 0 0 52.36033,30.101818 34.50983,34.509827 0 0 0 78.509121,18.075168 34.509827,34.509827 0 0 0 52.36033,6.0820985 Z"
       copytype="single_stretched"
       prop_scale="1"
       scale_y_rel="false"
       spacing="0"
       normal_offset="0"
       tang_offset="0"
       prop_units="false"
       vertical_pattern="false"
       hide_knot="false"
       fuse_tolerance="0" />
    <inkscape:path-effect
       effect="skeletal"
       id="path-effect4480"
       is_visible="true"
       lpeversion="1"
       pattern="M 52.36033,6.0820985 A 34.509827,34.509827 0 0 0 28.162324,16.038078 l -24.720972,2.12235 h 22.847184 32.358232 l -29.890682,2.56626 A 34.50983,34.509827 0 0 0 52.36033,30.101818 34.50983,34.509827 0 0 0 78.509121,18.075168 34.509827,34.509827 0 0 0 52.36033,6.0820985 Z"
       copytype="single_stretched"
       prop_scale="1"
       scale_y_rel="false"
       spacing="0"
       normal_offset="0"
       tang_offset="0"
       prop_units="false"
       vertical_pattern="false"
       hide_knot="false"
       fuse_tolerance="0" />
    <inkscape:path-effect
       effect="skeletal"
       id="path-effect3559"
       is_visible="true"
       lpeversion="1"
       pattern="M 52.36033,6.0820985 A 34.509827,34.509827 0 0 0 28.162324,16.038078 l -24.720972,2.12235 h 22.847184 32.358232 l -29.890682,2.56626 A 34.50983,34.509827 0 0 0 52.36033,30.101818 34.50983,34.509827 0 0 0 78.509121,18.075168 34.509827,34.509827 0 0 0 52.36033,6.0820985 Z"
       copytype="single_stretched"
       prop_scale="1"
       scale_y_rel="false"
       spacing="0"
       normal_offset="0"
       tang_offset="0"
       prop_units="false"
       vertical_pattern="false"
       hide_knot="false"
       fuse_tolerance="0" />
    <inkscape:path-effect
       effect="skeletal"
       id="path-effect3542"
       is_visible="true"
       lpeversion="1"
       pattern="M 52.36033,6.0820985 A 34.509827,34.509827 0 0 0 28.162324,16.038078 l -24.720972,2.12235 h 22.847184 32.358232 l -29.890682,2.56626 A 34.50983,34.509827 0 0 0 52.36033,30.101818 34.50983,34.509827 0 0 0 78.509121,18.075168 34.509827,34.509827 0 0 0 52.36033,6.0820985 Z"
       copytype="single_stretched"
       prop_scale="1"
       scale_y_rel="false"
       spacing="0"
       normal_offset="0"
       tang_offset="0"
       prop_units="false"
       vertical_pattern="false"
       hide_knot="false"
       fuse_tolerance="0" />
    <inkscape:path-effect
       effect="skeletal"
       id="path-effect3181"
       is_visible="true"
       lpeversion="1"
       pattern="M 52.36033,6.0820985 A 34.509827,34.509827 0 0 0 28.162324,16.038078 l -24.720972,2.12235 h 22.847184 32.358232 l -29.890682,2.56626 A 34.50983,34.509827 0 0 0 52.36033,30.101818 34.50983,34.509827 0 0 0 78.509121,18.075168 34.509827,34.509827 0 0 0 52.36033,6.0820985 Z"
       copytype="single_stretched"
       prop_scale="1"
       scale_y_rel="false"
       spacing="0"
       normal_offset="0"
       tang_offset="0"
       prop_units="false"
       vertical_pattern="false"
       hide_knot="false"
       fuse_tolerance="0" />
    <inkscape:path-effect
       effect="skeletal"
       id="path-effect3079"
       is_visible="true"
       lpeversion="1"
       pattern="M 52.36033,6.0820985 A 34.509827,34.509827 0 0 0 28.162324,16.038078 l -24.720972,2.12235 h 22.847184 32.358232 l -29.890682,2.56626 A 34.50983,34.509827 0 0 0 52.36033,30.101818 34.50983,34.509827 0 0 0 78.509121,18.075168 34.509827,34.509827 0 0 0 52.36033,6.0820985 Z"
       copytype="single_stretched"
       prop_scale="1"
       scale_y_rel="false"
       spacing="0"
       normal_offset="0"
       tang_offset="0"
       prop_units="false"
       vertical_pattern="false"
       hide_knot="false"
       fuse_tolerance="0" />
    <inkscape:path-effect
       effect="skeletal"
       id="path-effect2998"
       is_visible="true"
       lpeversion="1"
       pattern="M 52.36033,6.0820985 A 34.509827,34.509827 0 0 0 28.162324,16.038078 l -24.720972,2.12235 h 22.847184 32.358232 l -29.890682,2.56626 A 34.50983,34.509827 0 0 0 52.36033,30.101818 34.50983,34.509827 0 0 0 78.509121,18.075168 34.509827,34.509827 0 0 0 52.36033,6.0820985 Z"
       copytype="single_stretched"
       prop_scale="1"
       scale_y_rel="false"
       spacing="0"
       normal_offset="0"
       tang_offset="0"
       prop_units="false"
       vertical_pattern="false"
       hide_knot="false"
       fuse_tolerance="0" />
    <inkscape:path-effect
       effect="skeletal"
       id="path-effect2068"
       is_visible="true"
       lpeversion="1"
       pattern="M 52.36033,6.0820985 A 34.509827,34.509827 0 0 0 28.162324,16.038078 l -24.720972,2.12235 h 22.847184 32.358232 l -29.890682,2.56626 A 34.50983,34.509827 0 0 0 52.36033,30.101818 34.50983,34.509827 0 0 0 78.509121,18.075168 34.509827,34.509827 0 0 0 52.36033,6.0820985 Z"
       copytype="single_stretched"
       prop_scale="1"
       scale_y_rel="false"
       spacing="0"
       normal_offset="0"
       tang_offset="0"
       prop_units="false"
       vertical_pattern="false"
       hide_knot="false"
       fuse_tolerance="0" />
    <inkscape:path-effect
       effect="skeletal"
       id="path-effect2051"
       is_visible="true"
       lpeversion="1"
       pattern="M 52.36033,6.0820985 A 34.509827,34.509827 0 0 0 28.162324,16.038078 l -24.720972,2.12235 h 22.847184 32.358232 l -29.890682,2.56626 A 34.50983,34.509827 0 0 0 52.36033,30.101818 34.50983,34.509827 0 0 0 78.509121,18.075168 34.509827,34.509827 0 0 0 52.36033,6.0820985 Z"
       copytype="single_stretched"
       prop_scale="1"
       scale_y_rel="false"
       spacing="0"
       normal_offset="0"
       tang_offset="0"
       prop_units="false"
       vertical_pattern="false"
       hide_knot="false"
       fuse_tolerance="0" />
    <inkscape:path-effect
       effect="skeletal"
       id="path-effect2034"
       is_visible="true"
       lpeversion="1"
       pattern="M 52.36033,6.0820985 A 34.509827,34.509827 0 0 0 28.162324,16.038078 l -24.720972,2.12235 h 22.847184 32.358232 l -29.890682,2.56626 A 34.50983,34.509827 0 0 0 52.36033,30.101818 34.50983,34.509827 0 0 0 78.509121,18.075168 34.509827,34.509827 0 0 0 52.36033,6.0820985 Z"
       copytype="single_stretched"
       prop_scale="1"
       scale_y_rel="false"
       spacing="0"
       normal_offset="0"
       tang_offset="0"
       prop_units="false"
       vertical_pattern="false"
       hide_knot="false"
       fuse_tolerance="0" />
    <inkscape:path-effect
       effect="skeletal"
       id="path-effect1983"
       is_visible="true"
       lpeversion="1"
       pattern="M 52.36033,6.0820985 A 34.509827,34.509827 0 0 0 28.162324,16.038078 l -24.720972,2.12235 h 22.847184 32.358232 l -29.890682,2.56626 A 34.50983,34.509827 0 0 0 52.36033,30.101818 34.50983,34.509827 0 0 0 78.509121,18.075168 34.509827,34.509827 0 0 0 52.36033,6.0820985 Z"
       copytype="single_stretched"
       prop_scale="1"
       scale_y_rel="false"
       spacing="0"
       normal_offset="0"
       tang_offset="0"
       prop_units="false"
       vertical_pattern="false"
       hide_knot="false"
       fuse_tolerance="0" />
    <inkscape:path-effect
       effect="skeletal"
       id="path-effect14136"
       is_visible="true"
       lpeversion="1"
       pattern="m 49.160167,164.8902 a 34.509827,34.509827 0 0 0 -24.198006,9.95598 l -24.720972,2.12235 h 22.847184 32.358232 l -29.890682,2.56626 a 34.50983,34.509827 0 0 0 23.604244,9.37513 34.50983,34.509827 0 0 0 26.148791,-12.02665 34.509827,34.509827 0 0 0 -26.148791,-11.99307 z"
       copytype="single_stretched"
       prop_scale="1"
       scale_y_rel="false"
       spacing="0"
       normal_offset="0"
       tang_offset="0"
       prop_units="false"
       vertical_pattern="false"
       hide_knot="false"
       fuse_tolerance="0" />
    <inkscape:path-effect
       effect="skeletal"
       id="path-effect13973"
       is_visible="true"
       lpeversion="1"
       pattern="m 65.000167,105.4902 a 34.509827,34.509827 0 0 0 -24.198006,9.95598 l -24.720972,2.12235 h 22.847184 32.358232 l -29.890682,2.56626 a 34.50983,34.509827 0 0 0 23.604244,9.37513 34.50983,34.509827 0 0 0 26.148791,-12.02665 34.509827,34.509827 0 0 0 -26.148791,-11.99307 z"
       copytype="single_stretched"
       prop_scale="1"
       scale_y_rel="false"
       spacing="0"
       normal_offset="0"
       tang_offset="0"
       prop_units="false"
       vertical_pattern="false"
       hide_knot="false"
       fuse_tolerance="0" />
    <inkscape:path-effect
       effect="skeletal"
       id="path-effect13922"
       is_visible="true"
       lpeversion="1"
       pattern="m 65.000167,105.4902 a 34.509827,34.509827 0 0 0 -24.198006,9.95598 l -24.720972,2.12235 h 22.847184 32.358232 l -29.890682,2.56626 a 34.50983,34.509827 0 0 0 23.604244,9.37513 34.50983,34.509827 0 0 0 26.148791,-12.02665 34.509827,34.509827 0 0 0 -26.148791,-11.99307 z"
       copytype="single_stretched"
       prop_scale="1"
       scale_y_rel="false"
       spacing="0"
       normal_offset="0"
       tang_offset="0"
       prop_units="false"
       vertical_pattern="false"
       hide_knot="false"
       fuse_tolerance="0" />
    <inkscape:path-effect
       effect="skeletal"
       id="path-effect13922-8"
       is_visible="true"
       lpeversion="1"
       pattern="m 65.000167,105.4902 a 34.509827,34.509827 0 0 0 -24.198006,9.95598 l -24.720972,2.12235 h 22.847184 32.358232 l -29.890682,2.56626 a 34.50983,34.509827 0 0 0 23.604244,9.37513 34.50983,34.509827 0 0 0 26.148791,-12.02665 34.509827,34.509827 0 0 0 -26.148791,-11.99307 z"
       copytype="single_stretched"
       prop_scale="1"
       scale_y_rel="false"
       spacing="0"
       normal_offset="0"
       tang_offset="0"
       prop_units="false"
       vertical_pattern="false"
       hide_knot="false"
       fuse_tolerance="0" />
    <inkscape:path-effect
       effect="skeletal"
       id="path-effect13973-3"
       is_visible="true"
       lpeversion="1"
       pattern="m 65.000167,105.4902 a 34.509827,34.509827 0 0 0 -24.198006,9.95598 l -24.720972,2.12235 h 22.847184 32.358232 l -29.890682,2.56626 a 34.50983,34.509827 0 0 0 23.604244,9.37513 34.50983,34.509827 0 0 0 26.148791,-12.02665 34.509827,34.509827 0 0 0 -26.148791,-11.99307 z"
       copytype="single_stretched"
       prop_scale="1"
       scale_y_rel="false"
       spacing="0"
       normal_offset="0"
       tang_offset="0"
       prop_units="false"
       vertical_pattern="false"
       hide_knot="false"
       fuse_tolerance="0" />
    <inkscape:path-effect
       effect="skeletal"
       id="path-effect14136-6"
       is_visible="true"
       lpeversion="1"
       pattern="m 49.160167,164.8902 a 34.509827,34.509827 0 0 0 -24.198006,9.95598 l -24.720972,2.12235 h 22.847184 32.358232 l -29.890682,2.56626 a 34.50983,34.509827 0 0 0 23.604244,9.37513 34.50983,34.509827 0 0 0 26.148791,-12.02665 34.509827,34.509827 0 0 0 -26.148791,-11.99307 z"
       copytype="single_stretched"
       prop_scale="1"
       scale_y_rel="false"
       spacing="0"
       normal_offset="0"
       tang_offset="0"
       prop_units="false"
       vertical_pattern="false"
       hide_knot="false"
       fuse_tolerance="0" />
    <inkscape:path-effect
       effect="skeletal"
       id="path-effect14136-4"
       is_visible="true"
       lpeversion="1"
       pattern="m 49.160167,164.8902 a 34.509827,34.509827 0 0 0 -24.198006,9.95598 l -24.720972,2.12235 h 22.847184 32.358232 l -29.890682,2.56626 a 34.50983,34.509827 0 0 0 23.604244,9.37513 34.50983,34.509827 0 0 0 26.148791,-12.02665 34.509827,34.509827 0 0 0 -26.148791,-11.99307 z"
       copytype="single_stretched"
       prop_scale="1"
       scale_y_rel="false"
       spacing="0"
       normal_offset="0"
       tang_offset="0"
       prop_units="false"
       vertical_pattern="false"
       hide_knot="false"
       fuse_tolerance="0" />
    <inkscape:path-effect
       effect="skeletal"
       id="path-effect2068-1"
       is_visible="true"
       lpeversion="1"
       pattern="M 52.36033,6.0820985 A 34.509827,34.509827 0 0 0 28.162324,16.038078 l -24.720972,2.12235 h 22.847184 32.358232 l -29.890682,2.56626 A 34.50983,34.509827 0 0 0 52.36033,30.101818 34.50983,34.509827 0 0 0 78.509121,18.075168 34.509827,34.509827 0 0 0 52.36033,6.0820985 Z"
       copytype="single_stretched"
       prop_scale="1"
       scale_y_rel="false"
       spacing="0"
       normal_offset="0"
       tang_offset="0"
       prop_units="false"
       vertical_pattern="false"
       hide_knot="false"
       fuse_tolerance="0" />
    <inkscape:path-effect
       effect="skeletal"
       id="path-effect2068-16"
       is_visible="true"
       lpeversion="1"
       pattern="M 52.36033,6.0820985 A 34.509827,34.509827 0 0 0 28.162324,16.038078 l -24.720972,2.12235 h 22.847184 32.358232 l -29.890682,2.56626 A 34.50983,34.509827 0 0 0 52.36033,30.101818 34.50983,34.509827 0 0 0 78.509121,18.075168 34.509827,34.509827 0 0 0 52.36033,6.0820985 Z"
       copytype="single_stretched"
       prop_scale="1"
       scale_y_rel="false"
       spacing="0"
       normal_offset="0"
       tang_offset="0"
       prop_units="false"
       vertical_pattern="false"
       hide_knot="false"
       fuse_tolerance="0" />
    <inkscape:path-effect
       effect="skeletal"
       id="path-effect2068-1-8"
       is_visible="true"
       lpeversion="1"
       pattern="M 52.36033,6.0820985 A 34.509827,34.509827 0 0 0 28.162324,16.038078 l -24.720972,2.12235 h 22.847184 32.358232 l -29.890682,2.56626 A 34.50983,34.509827 0 0 0 52.36033,30.101818 34.50983,34.509827 0 0 0 78.509121,18.075168 34.509827,34.509827 0 0 0 52.36033,6.0820985 Z"
       copytype="single_stretched"
       prop_scale="1"
       scale_y_rel="false"
       spacing="0"
       normal_offset="0"
       tang_offset="0"
       prop_units="false"
       vertical_pattern="false"
       hide_knot="false"
       fuse_tolerance="0" />
    <inkscape:path-effect
       effect="skeletal"
       id="path-effect2068-1-8-0"
       is_visible="true"
       lpeversion="1"
       pattern="M 52.36033,6.0820985 A 34.509827,34.509827 0 0 0 28.162324,16.038078 l -24.720972,2.12235 h 22.847184 32.358232 l -29.890682,2.56626 A 34.50983,34.509827 0 0 0 52.36033,30.101818 34.50983,34.509827 0 0 0 78.509121,18.075168 34.509827,34.509827 0 0 0 52.36033,6.0820985 Z"
       copytype="single_stretched"
       prop_scale="1"
       scale_y_rel="false"
       spacing="0"
       normal_offset="0"
       tang_offset="0"
       prop_units="false"
       vertical_pattern="false"
       hide_knot="false"
       fuse_tolerance="0" />
    <inkscape:path-effect
       effect="skeletal"
       id="path-effect2068-16-8"
       is_visible="true"
       lpeversion="1"
       pattern="M 52.36033,6.0820985 A 34.509827,34.509827 0 0 0 28.162324,16.038078 l -24.720972,2.12235 h 22.847184 32.358232 l -29.890682,2.56626 A 34.50983,34.509827 0 0 0 52.36033,30.101818 34.50983,34.509827 0 0 0 78.509121,18.075168 34.509827,34.509827 0 0 0 52.36033,6.0820985 Z"
       copytype="single_stretched"
       prop_scale="1"
       scale_y_rel="false"
       spacing="0"
       normal_offset="0"
       tang_offset="0"
       prop_units="false"
       vertical_pattern="false"
       hide_knot="false"
       fuse_tolerance="0" />
    <inkscape:path-effect
       effect="skeletal"
       id="path-effect3181-9"
       is_visible="true"
       lpeversion="1"
       pattern="M 52.36033,6.0820985 A 34.509827,34.509827 0 0 0 28.162324,16.038078 l -24.720972,2.12235 h 22.847184 32.358232 l -29.890682,2.56626 A 34.50983,34.509827 0 0 0 52.36033,30.101818 34.50983,34.509827 0 0 0 78.509121,18.075168 34.509827,34.509827 0 0 0 52.36033,6.0820985 Z"
       copytype="single_stretched"
       prop_scale="1"
       scale_y_rel="false"
       spacing="0"
       normal_offset="0"
       tang_offset="0"
       prop_units="false"
       vertical_pattern="false"
       hide_knot="false"
       fuse_tolerance="0" />
    <inkscape:path-effect
       effect="skeletal"
       id="path-effect3079-0"
       is_visible="true"
       lpeversion="1"
       pattern="M 52.36033,6.0820985 A 34.509827,34.509827 0 0 0 28.162324,16.038078 l -24.720972,2.12235 h 22.847184 32.358232 l -29.890682,2.56626 A 34.50983,34.509827 0 0 0 52.36033,30.101818 34.50983,34.509827 0 0 0 78.509121,18.075168 34.509827,34.509827 0 0 0 52.36033,6.0820985 Z"
       copytype="single_stretched"
       prop_scale="1"
       scale_y_rel="false"
       spacing="0"
       normal_offset="0"
       tang_offset="0"
       prop_units="false"
       vertical_pattern="false"
       hide_knot="false"
       fuse_tolerance="0" />
    <inkscape:path-effect
       effect="skeletal"
       id="path-effect3559-2"
       is_visible="true"
       lpeversion="1"
       pattern="M 52.36033,6.0820985 A 34.509827,34.509827 0 0 0 28.162324,16.038078 l -24.720972,2.12235 h 22.847184 32.358232 l -29.890682,2.56626 A 34.50983,34.509827 0 0 0 52.36033,30.101818 34.50983,34.509827 0 0 0 78.509121,18.075168 34.509827,34.509827 0 0 0 52.36033,6.0820985 Z"
       copytype="single_stretched"
       prop_scale="1"
       scale_y_rel="false"
       spacing="0"
       normal_offset="0"
       tang_offset="0"
       prop_units="false"
       vertical_pattern="false"
       hide_knot="false"
       fuse_tolerance="0" />
  </defs>
  <g
     inkscape:label="Layer 1"
     inkscape:groupmode="layer"
     id="layer1">
    <g
       id="g4398"
       transform="matrix(0.99939214,0,0,0.99555042,11.807821,-180.50444)">
      <path
         style="fill:#b87333;fill-opacity:1;stroke:#ffffff;stroke-width:1"
         d="m 146.95508,64.683284 c -0.29407,0.209634 -0.58631,0.421014 -0.87672,0.634091 -7.27687,5.315258 -13.45179,11.582533 -18.44466,18.251821 -7.49457,9.99274 -12.13539,20.418894 -14.07402,29.849614 -3.18345,5.01695 -6.1041,10.18773 -8.73937,15.48969 0,0 0,0 0,1e-5 -3.22987,6.4947 -6.025281,13.22136 -8.062198,20.16319 0,0 -10e-7,0 -10e-7,0 -1.702884,5.79544 -2.910833,11.78444 -2.938778,17.78159 0.250581,-5.98782 1.673897,-11.88038 3.572874,-17.56991 l 10e-7,0 c 2.273781,-6.81148 5.287262,-13.36285 8.718522,-19.67319 l 0,0 c 2.11201,-3.88404 4.37893,-7.68319 6.79015,-11.38895 6.40844,-9.849 13.83618,-19.03826 22.08396,-27.407875 l 0,-2e-6 c 5.62213,-5.70508 11.65474,-11.017464 18.15238,-15.699068 l 0,-2e-6 c 4.19562,-3.022894 8.58946,-5.789571 13.19074,-8.140893 -4.51392,2.522292 -8.78955,5.444482 -12.85385,8.608462 0,10e-7 0,10e-7 0,10e-7 -6.29348,4.900649 -12.08082,10.398806 -17.44309,16.26246 0,10e-7 0,2e-6 0,3e-6 -6.59544,7.21487 -12.57664,14.956974 -17.83674,23.119074 7.4267,-4.74824 15.79486,-10.82887 24.04624,-16.999935 5.9672,-4.444956 11.81178,-8.865449 17.87558,-13.163268 -0.0117,0.0082 0.73825,-0.519741 0.72654,-0.511491 5.33369,-3.758104 10.4135,-7.217768 15.64069,-10.240221 0,0 1e-5,-10e-7 1e-5,-10e-7 5.35065,-3.063192 10.33562,-5.6346 15.62625,-7.454369 6.00942,-2.121085 12.15435,-3.15994 18.34541,-3.343834 -3.81485,-4.826059 -10.33053,-9.086459 -18.85799,-10.665616 -7.35609,-1.352389 -15.42797,-0.798094 -23.27693,1.558362 0,1e-6 0,1e-6 0,1e-6 -7.67245,2.270412 -14.89164,5.931645 -21.365,10.540256 z"
         id="path3166"
         inkscape:path-effect="#path-effect3181"
         inkscape:original-d="M 93.750923,166.85042 C 95.535833,124.2618 162.89408,41.073715 210.44787,63.265483"
         class="UnoptimicedTransforms"
         transform="translate(14.865674,129.951)" />
      <path
         style="fill:#b87333;fill-opacity:1;stroke:#ffffff;stroke-width:1"
         d="m 146.95508,64.683284 c -0.29407,0.209634 -0.58631,0.421014 -0.87672,0.634091 -7.27687,5.315258 -13.45179,11.582533 -18.44466,18.251821 -7.49457,9.99274 -12.13539,20.418894 -14.07402,29.849614 -3.18345,5.01695 -6.1041,10.18773 -8.73937,15.48969 0,0 0,0 0,1e-5 -3.22987,6.4947 -6.025281,13.22136 -8.062198,20.16319 0,0 -10e-7,0 -10e-7,0 -1.702884,5.79544 -2.910833,11.78444 -2.938778,17.78159 0.250581,-5.98782 1.673897,-11.88038 3.572874,-17.56991 l 10e-7,0 c 2.273781,-6.81148 5.287262,-13.36285 8.718522,-19.67319 l 0,0 c 2.11201,-3.88404 4.37893,-7.68319 6.79015,-11.38895 6.40844,-9.849 13.83618,-19.03826 22.08396,-27.407875 l 0,-2e-6 c 5.62213,-5.70508 11.65474,-11.017464 18.15238,-15.699068 l 0,-2e-6 c 4.19562,-3.022894 8.58946,-5.789571 13.19074,-8.140893 -4.51392,2.522292 -8.78955,5.444482 -12.85385,8.608462 0,10e-7 0,10e-7 0,10e-7 -6.29348,4.900649 -12.08082,10.398806 -17.44309,16.26246 0,10e-7 0,2e-6 0,3e-6 -6.59544,7.21487 -12.57664,14.956974 -17.83674,23.119074 7.4267,-4.74824 15.79486,-10.82887 24.04624,-16.999935 5.9672,-4.444956 11.81178,-8.865449 17.87558,-13.163268 -0.0117,0.0082 0.73825,-0.519741 0.72654,-0.511491 5.33369,-3.758104 10.4135,-7.217768 15.64069,-10.240221 0,0 1e-5,-10e-7 1e-5,-10e-7 5.35065,-3.063192 10.33562,-5.6346 15.62625,-7.454369 6.00942,-2.121085 12.15435,-3.15994 18.34541,-3.343834 -3.81485,-4.826059 -10.33053,-9.086459 -18.85799,-10.665616 -7.35609,-1.352389 -15.42797,-0.798094 -23.27693,1.558362 0,1e-6 0,1e-6 0,1e-6 -7.67245,2.270412 -14.89164,5.931645 -21.365,10.540256 z"
         id="path3166-1"
         inkscape:path-effect="#path-effect3181-9"
         inkscape:original-d="M 93.750923,166.85042 C 95.535833,124.2618 162.89408,41.073715 210.44787,63.265483"
         class="UnoptimicedTransforms"
         transform="matrix(-1,0,0,1,199.64906,129.951)" />
    </g>
    <g
       id="g11662"
       transform="matrix(0.99939214,0,0,0.99555042,11.807821,-180.50444)">
      <path
         style="fill:#b87333;fill-opacity:1;stroke:#ffffff;stroke-width:1"
         d="m 146.95508,64.683284 c -0.29407,0.209634 -0.58631,0.421014 -0.87672,0.634091 -7.27687,5.315258 -13.45179,11.582533 -18.44466,18.251821 -7.49457,9.99274 -12.13539,20.418894 -14.07402,29.849614 -3.18345,5.01695 -6.1041,10.18773 -8.73937,15.48969 0,0 0,0 0,1e-5 -3.22987,6.4947 -6.025281,13.22136 -8.062198,20.16319 0,0 -10e-7,0 -10e-7,0 -1.702884,5.79544 -2.910833,11.78444 -2.938778,17.78159 0.250581,-5.98782 1.673897,-11.88038 3.572874,-17.56991 l 10e-7,0 c 2.273781,-6.81148 5.287262,-13.36285 8.718522,-19.67319 l 0,0 c 2.11201,-3.88404 4.37893,-7.68319 6.79015,-11.38895 6.40844,-9.849 13.83618,-19.03826 22.08396,-27.407875 l 0,-2e-6 c 5.62213,-5.70508 11.65474,-11.017464 18.15238,-15.699068 l 0,-2e-6 c 4.19562,-3.022894 8.58946,-5.789571 13.19074,-8.140893 -4.51392,2.522292 -8.78955,5.444482 -12.85385,8.608462 0,10e-7 0,10e-7 0,10e-7 -6.29348,4.900649 -12.08082,10.398806 -17.44309,16.26246 0,10e-7 0,2e-6 0,3e-6 -6.59544,7.21487 -12.57664,14.956974 -17.83674,23.119074 7.4267,-4.74824 15.79486,-10.82887 24.04624,-16.999935 5.9672,-4.444956 11.81178,-8.865449 17.87558,-13.163268 -0.0117,0.0082 0.73825,-0.519741 0.72654,-0.511491 5.33369,-3.758104 10.4135,-7.217768 15.64069,-10.240221 0,0 1e-5,-10e-7 1e-5,-10e-7 5.35065,-3.063192 10.33562,-5.6346 15.62625,-7.454369 6.00942,-2.121085 12.15435,-3.15994 18.34541,-3.343834 -3.81485,-4.826059 -10.33053,-9.086459 -18.85799,-10.665616 -7.35609,-1.352389 -15.42797,-0.798094 -23.27693,1.558362 0,1e-6 0,1e-6 0,1e-6 -7.67245,2.270412 -14.89164,5.931645 -21.365,10.540256 z"
         id="path11658"
         inkscape:path-effect="#path-effect11666"
         inkscape:original-d="M 93.750923,166.85042 C 95.535833,124.2618 162.89408,41.073715 210.44787,63.265483"
         class="UnoptimicedTransforms"
         transform="translate(14.865674,129.951)" />
      <path
         style="fill:#b87333;fill-opacity:1;stroke:#ffffff;stroke-width:1"
         d="m 146.95508,64.683284 c -0.29407,0.209634 -0.58631,0.421014 -0.87672,0.634091 -7.27687,5.315258 -13.45179,11.582533 -18.44466,18.251821 -7.49457,9.99274 -12.13539,20.418894 -14.07402,29.849614 -3.18345,5.01695 -6.1041,10.18773 -8.73937,15.48969 0,0 0,0 0,1e-5 -3.22987,6.4947 -6.025281,13.22136 -8.062198,20.16319 0,0 -10e-7,0 -10e-7,0 -1.702884,5.79544 -2.910833,11.78444 -2.938778,17.78159 0.250581,-5.98782 1.673897,-11.88038 3.572874,-17.56991 l 10e-7,0 c 2.273781,-6.81148 5.287262,-13.36285 8.718522,-19.67319 l 0,0 c 2.11201,-3.88404 4.37893,-7.68319 6.79015,-11.38895 6.40844,-9.849 13.83618,-19.03826 22.08396,-27.407875 l 0,-2e-6 c 5.62213,-5.70508 11.65474,-11.017464 18.15238,-15.699068 l 0,-2e-6 c 4.19562,-3.022894 8.58946,-5.789571 13.19074,-8.140893 -4.51392,2.522292 -8.78955,5.444482 -12.85385,8.608462 0,10e-7 0,10e-7 0,10e-7 -6.29348,4.900649 -12.08082,10.398806 -17.44309,16.26246 0,10e-7 0,2e-6 0,3e-6 -6.59544,7.21487 -12.57664,14.956974 -17.83674,23.119074 7.4267,-4.74824 15.79486,-10.82887 24.04624,-16.999935 5.9672,-4.444956 11.81178,-8.865449 17.87558,-13.163268 -0.0117,0.0082 0.73825,-0.519741 0.72654,-0.511491 5.33369,-3.758104 10.4135,-7.217768 15.64069,-10.240221 0,0 1e-5,-10e-7 1e-5,-10e-7 5.35065,-3.063192 10.33562,-5.6346 15.62625,-7.454369 6.00942,-2.121085 12.15435,-3.15994 18.34541,-3.343834 -3.81485,-4.826059 -10.33053,-9.086459 -18.85799,-10.665616 -7.35609,-1.352389 -15.42797,-0.798094 -23.27693,1.558362 0,1e-6 0,1e-6 0,1e-6 -7.67245,2.270412 -14.89164,5.931645 -21.365,10.540256 z"
         id="path11660"
         inkscape:path-effect="#path-effect11670"
         inkscape:original-d="M 93.750923,166.85042 C 95.535833,124.2618 162.89408,41.073715 210.44787,63.265483"
         class="UnoptimicedTransforms"
         transform="matrix(-1,0,0,1,199.64906,129.951)" />
    </g>
  </g>
</svg>
