<?xml version="1.0" encoding="UTF-8"?>
<!-- Created with Inkscape (http://www.inkscape.org/) -->
<svg width="238mm" height="115mm" version="1.1" viewBox="0 0 238 115" xmlns="http://www.w3.org/2000/svg">
 <g transform="matrix(.99939 0 0 .99555 11.808 -180.5)" fill="#b87333" stroke="#fff">
  <path class="UnoptimicedTransforms" transform="translate(14.866 129.95)" d="m146.96 64.683c-0.29407 0.20963-0.58631 0.42101-0.87672 0.63409-7.2769 5.3153-13.452 11.583-18.445 18.252-7.4946 9.9927-12.135 20.419-14.074 29.85-3.1834 5.017-6.1041 10.188-8.7394 15.49v1e-5c-3.2299 6.4947-6.0253 13.221-8.0622 20.163h-1e-6c-1.7029 5.7954-2.9108 11.784-2.9388 17.782 0.25058-5.9878 1.6739-11.88 3.5729-17.57h1e-6c2.2738-6.8115 5.2873-13.363 8.7185-19.673 2.112-3.884 4.3789-7.6832 6.7902-11.389 6.4084-9.849 13.836-19.038 22.084-27.408v-2e-6c5.6221-5.7051 11.655-11.017 18.152-15.699v-2e-6c4.1956-3.0229 8.5895-5.7896 13.191-8.1409-4.5139 2.5223-8.7896 5.4445-12.854 8.6085v1e-6c-6.2935 4.9006-12.081 10.399-17.443 16.262v3e-6c-6.5954 7.2149-12.577 14.957-17.837 23.119 7.4267-4.7482 15.795-10.829 24.046-17 5.9672-4.445 11.812-8.8654 17.876-13.163-0.0117 0.0082 0.73825-0.51974 0.72654-0.51149 5.3337-3.7581 10.414-7.2178 15.641-10.24l1e-5 -1e-6c5.3506-3.0632 10.336-5.6346 15.626-7.4544 6.0094-2.1211 12.154-3.1599 18.345-3.3438-3.8148-4.8261-10.331-9.0865-18.858-10.666-7.3561-1.3524-15.428-0.79809-23.277 1.5584v1e-6c-7.6724 2.2704-14.892 5.9316-21.365 10.54z"/>
  <path class="UnoptimicedTransforms" transform="matrix(-1 0 0 1 199.65 129.95)" d="m146.96 64.683c-0.29407 0.20963-0.58631 0.42101-0.87672 0.63409-7.2769 5.3153-13.452 11.583-18.445 18.252-7.4946 9.9927-12.135 20.419-14.074 29.85-3.1834 5.017-6.1041 10.188-8.7394 15.49v1e-5c-3.2299 6.4947-6.0253 13.221-8.0622 20.163h-1e-6c-1.7029 5.7954-2.9108 11.784-2.9388 17.782 0.25058-5.9878 1.6739-11.88 3.5729-17.57h1e-6c2.2738-6.8115 5.2873-13.363 8.7185-19.673 2.112-3.884 4.3789-7.6832 6.7902-11.389 6.4084-9.849 13.836-19.038 22.084-27.408v-2e-6c5.6221-5.7051 11.655-11.017 18.152-15.699v-2e-6c4.1956-3.0229 8.5895-5.7896 13.191-8.1409-4.5139 2.5223-8.7896 5.4445-12.854 8.6085v1e-6c-6.2935 4.9006-12.081 10.399-17.443 16.262v3e-6c-6.5954 7.2149-12.577 14.957-17.837 23.119 7.4267-4.7482 15.795-10.829 24.046-17 5.9672-4.445 11.812-8.8654 17.876-13.163-0.0117 0.0082 0.73825-0.51974 0.72654-0.51149 5.3337-3.7581 10.414-7.2178 15.641-10.24l1e-5 -1e-6c5.3506-3.0632 10.336-5.6346 15.626-7.4544 6.0094-2.1211 12.154-3.1599 18.345-3.3438-3.8148-4.8261-10.331-9.0865-18.858-10.666-7.3561-1.3524-15.428-0.79809-23.277 1.5584v1e-6c-7.6724 2.2704-14.892 5.9316-21.365 10.54z"/>
  <path class="UnoptimicedTransforms" transform="translate(14.866 129.95)" d="m146.96 64.683c-0.29407 0.20963-0.58631 0.42101-0.87672 0.63409-7.2769 5.3153-13.452 11.583-18.445 18.252-7.4946 9.9927-12.135 20.419-14.074 29.85-3.1834 5.017-6.1041 10.188-8.7394 15.49v1e-5c-3.2299 6.4947-6.0253 13.221-8.0622 20.163h-1e-6c-1.7029 5.7954-2.9108 11.784-2.9388 17.782 0.25058-5.9878 1.6739-11.88 3.5729-17.57h1e-6c2.2738-6.8115 5.2873-13.363 8.7185-19.673 2.112-3.884 4.3789-7.6832 6.7902-11.389 6.4084-9.849 13.836-19.038 22.084-27.408v-2e-6c5.6221-5.7051 11.655-11.017 18.152-15.699v-2e-6c4.1956-3.0229 8.5895-5.7896 13.191-8.1409-4.5139 2.5223-8.7896 5.4445-12.854 8.6085v1e-6c-6.2935 4.9006-12.081 10.399-17.443 16.262v3e-6c-6.5954 7.2149-12.577 14.957-17.837 23.119 7.4267-4.7482 15.795-10.829 24.046-17 5.9672-4.445 11.812-8.8654 17.876-13.163-0.0117 0.0082 0.73825-0.51974 0.72654-0.51149 5.3337-3.7581 10.414-7.2178 15.641-10.24l1e-5 -1e-6c5.3506-3.0632 10.336-5.6346 15.626-7.4544 6.0094-2.1211 12.154-3.1599 18.345-3.3438-3.8148-4.8261-10.331-9.0865-18.858-10.666-7.3561-1.3524-15.428-0.79809-23.277 1.5584v1e-6c-7.6724 2.2704-14.892 5.9316-21.365 10.54z"/>
  <path class="UnoptimicedTransforms" transform="matrix(-1 0 0 1 199.65 129.95)" d="m146.96 64.683c-0.29407 0.20963-0.58631 0.42101-0.87672 0.63409-7.2769 5.3153-13.452 11.583-18.445 18.252-7.4946 9.9927-12.135 20.419-14.074 29.85-3.1834 5.017-6.1041 10.188-8.7394 15.49v1e-5c-3.2299 6.4947-6.0253 13.221-8.0622 20.163h-1e-6c-1.7029 5.7954-2.9108 11.784-2.9388 17.782 0.25058-5.9878 1.6739-11.88 3.5729-17.57h1e-6c2.2738-6.8115 5.2873-13.363 8.7185-19.673 2.112-3.884 4.3789-7.6832 6.7902-11.389 6.4084-9.849 13.836-19.038 22.084-27.408v-2e-6c5.6221-5.7051 11.655-11.017 18.152-15.699v-2e-6c4.1956-3.0229 8.5895-5.7896 13.191-8.1409-4.5139 2.5223-8.7896 5.4445-12.854 8.6085v1e-6c-6.2935 4.9006-12.081 10.399-17.443 16.262v3e-6c-6.5954 7.2149-12.577 14.957-17.837 23.119 7.4267-4.7482 15.795-10.829 24.046-17 5.9672-4.445 11.812-8.8654 17.876-13.163-0.0117 0.0082 0.73825-0.51974 0.72654-0.51149 5.3337-3.7581 10.414-7.2178 15.641-10.24l1e-5 -1e-6c5.3506-3.0632 10.336-5.6346 15.626-7.4544 6.0094-2.1211 12.154-3.1599 18.345-3.3438-3.8148-4.8261-10.331-9.0865-18.858-10.666-7.3561-1.3524-15.428-0.79809-23.277 1.5584v1e-6c-7.6724 2.2704-14.892 5.9316-21.365 10.54z"/>
 </g>
</svg>
