<?xml version="1.0" encoding="UTF-8"?>
<!-- Created with Inkscape (http://www.inkscape.org/) -->
<svg width="160mm" height="72mm" version="1.1" viewBox="0 0 160 72" xmlns="http://www.w3.org/2000/svg">
 <g transform="matrix(.99893 0 0 .99704 -27.145 -146.52)" fill="#b87333" stroke="#fff">
  <path class="UnoptimicedTransforms" transform="translate(24.011 .63787)" d="m122.8 156.51c-4.889 3.5071-9.107 7.7421-12.438 12.408-4.3154 5.9638-7.0564 12.482-7.9738 18.796-7.5804 9.3017-13.917 19.514-17.753 30.631 4.1491-10.024 10.312-19.033 17.526-27.196 4.6044-5.2096 9.6373-10.075 14.849-14.639 6.3534-5.5643 13.115-10.668 20.249-15.187-6.8613 4.9489-13.281 10.438-19.243 16.335-4.0644 4.0313-7.9782 8.2424-11.594 12.633 5.7094-1.3298 11.565-3.436 17.148-6.2904 4.5832-2.2758 9.0227-4.9639 13.214-7.9611 2.9763-2.1356 5.8319-4.4306 8.5321-6.8511 6.787-6.0424 12.825-13.362 17.266-20.379-8.1761-3.0936-18.594-2.5722-28.704 1.5738-3.8768 1.5803-7.6105 3.6449-11.079 6.1277z"/>
  <path class="UnoptimicedTransforms" transform="matrix(-1 0 0 1 190.51 .63787)" d="m122.8 156.51c-4.889 3.5071-9.107 7.7421-12.438 12.408-4.3154 5.9638-7.0564 12.482-7.9738 18.796-7.5804 9.3017-13.917 19.514-17.753 30.631 4.1491-10.024 10.312-19.033 17.526-27.196 4.6044-5.2096 9.6373-10.075 14.849-14.639 6.3534-5.5643 13.115-10.668 20.249-15.187-6.8613 4.9489-13.281 10.438-19.243 16.335-4.0644 4.0313-7.9782 8.2424-11.594 12.633 5.7094-1.3298 11.565-3.436 17.148-6.2904 4.5832-2.2758 9.0227-4.9639 13.214-7.9611 2.9763-2.1356 5.8319-4.4306 8.5321-6.8511 6.787-6.0424 12.825-13.362 17.266-20.379-8.1761-3.0936-18.594-2.5722-28.704 1.5738-3.8768 1.5803-7.6105 3.6449-11.079 6.1277z"/>
 </g>
</svg>
